# xmcd CD database file
#
# Track frame offsets:
#	150
#	16517
#	28445
#	39657
#	52722
#	64707
#	79700
#	102190
#	115662
#	128885
#	141735
#	155970
#	168540
#	180117
#	196570
#	215372
#	228530
#	238582
#	255370
#	268770
#	285632
#	300172
#
# Disc length: 4208 seconds
#
# Revision: 7
# Processed by: cddbd v1.5PL3 Copyright (c) Steve Scherf et al.
# Submitted via: CDex 1.51
#
DISCID=24106e16
DTITLE=Various Artist - Love Song Collection Oldies
DYEAR=1900
DGENRE=Vocal
TTITLE0=Unchained Melody
TTITLE1=Save The Last Dance For Me
TTITLE2=Rhythm Of The Rain
TTITLE3=My Girl
TTITLE4=The End Of The World
TTITLE5=Woman Woman
TTITLE6=Those Were The Days
TTITLE7=Stand By Me
TTITLE8=When Will I See You Again
TTITLE9=Please Mr. Postman
TTITLE10=Me And You And Dog Named Boo
TTITLE11=Sugar Sugar
TTITLE12=Love Grows(Where My Rosemary Gose)
TTITLE13=Time Of The Season
TTITLE14=Only Yesterday
TTITLE15=HappyTogether
TTITLE16=Simon Says
TTITLE17=Don't Let Me Be
TTITLE18=Misunderstood
TTITLE19=When A Men Loves A Woman
TTITLE20=You've Lost That Lovin' Feelin'
TTITLE21=Silence is Golden
EXTD=
EXTT0=
EXTT1=
EXTT2=
EXTT3=
EXTT4=
EXTT5=
EXTT6=
EXTT7=
EXTT8=
EXTT9=
EXTT10=
EXTT11=
EXTT12=
EXTT13=
EXTT14=
EXTT15=
EXTT16=
EXTT17=
EXTT18=
EXTT19=
EXTT20=
EXTT21=
PLAYORDER=
